<?xml version="1.0" standalone="no"?>
<!DOCTYPE svg PUBLIC "-//W3C//DTD SVG 20010904//EN"
 "http://www.w3.org/TR/2001/REC-SVG-20010904/DTD/svg10.dtd">
<svg version="1.0" xmlns="http://www.w3.org/2000/svg"
 width="392.000000pt" height="222.000000pt" viewBox="0 0 392.000000 222.000000"
 preserveAspectRatio="xMidYMid meet">

<g transform="translate(0.000000,222.000000) scale(0.100000,-0.100000)"
fill="#000000" stroke="none">
<path d="M1965 1798 c-8 -18 -28 -66 -45 -107 l-32 -73 23 -24 c27 -28 20 -41
-12 -23 -19 10 -25 9 -31 -2 -5 -8 -63 -115 -129 -239 -66 -124 -132 -244
-145 -267 -14 -24 -23 -43 -21 -43 3 0 51 22 108 50 57 27 129 57 160 66 l56
17 0 56 c0 58 11 90 46 129 59 65 147 -23 147 -149 0 -36 1 -37 68 -59 37 -12
106 -42 155 -66 48 -24 87 -40 87 -35 0 23 -58 111 -99 148 -35 31 -40 40 -23
36 12 -3 22 -3 22 -1 0 3 -56 115 -123 249 -68 134 -136 272 -150 307 -15 34
-31 62 -37 62 -6 0 -17 -15 -25 -32z"/>
<path d="M1362 1152 c-55 -29 -111 -93 -148 -168 -57 -114 -56 -185 2 -227 21
-15 30 -17 58 -7 18 6 43 22 56 35 l23 25 15 -31 c16 -32 56 -58 69 -45 5 4 0
12 -10 18 -38 20 -39 54 -7 135 17 42 28 83 25 90 -2 8 6 31 20 51 32 47 32
86 0 117 -29 30 -58 31 -103 7z m84 -17 c10 -24 -14 -69 -56 -110 -36 -35 -38
-40 -24 -56 14 -15 12 -21 -16 -68 -34 -54 -107 -124 -121 -115 -41 25 61 247
151 328 44 39 58 44 66 21z"/>
<path d="M2816 1129 c-27 -38 -214 -279 -265 -340 -19 -24 -22 -32 -12 -42 10
-9 19 -5 42 23 58 68 285 345 292 356 3 6 -1 18 -11 27 -16 14 -19 12 -46 -24z"/>
<path d="M2537 1100 c-19 -23 -49 -69 -66 -104 -25 -51 -37 -65 -60 -69 -16
-4 -51 -30 -84 -63 -31 -32 -59 -55 -62 -52 -4 3 -1 24 6 47 10 32 9 43 -1 56
-17 20 -23 19 -59 -11 -18 -15 -29 -19 -25 -11 3 9 -2 20 -15 26 -28 16 -29
15 -42 -30 -11 -36 -62 -89 -74 -77 -3 3 3 24 12 47 16 42 16 44 -2 58 -18 13
-21 11 -37 -26 -15 -37 -42 -61 -67 -61 -5 0 -2 13 7 30 16 28 16 30 0 47 -17
16 -19 16 -33 -2 -13 -18 -16 -29 -19 -74 -1 -16 -32 -38 -40 -30 -3 3 1 27
11 54 15 46 15 49 -2 62 -27 19 -33 17 -40 -17 -7 -33 -50 -90 -67 -90 -6 0
-8 13 -4 34 9 50 -8 53 -54 12 -22 -20 -45 -36 -50 -36 -17 0 5 34 44 68 19
16 32 33 29 36 -17 16 -48 0 -106 -54 -77 -72 -93 -76 -70 -18 16 40 16 42 -2
52 -10 6 -29 21 -41 34 l-23 23 -16 -25 c-14 -21 -15 -29 -5 -41 10 -12 10
-19 2 -27 -21 -21 -13 -32 8 -13 26 24 32 17 20 -25 -16 -55 16 -77 61 -41 22
18 23 18 40 -2 l17 -21 41 27 c48 32 49 32 47 11 0 -9 7 -21 16 -27 13 -9 25
-5 55 16 37 26 38 26 45 7 11 -30 34 -34 71 -13 18 11 47 22 65 26 27 6 32 4
32 -13 0 -28 36 -35 67 -12 25 18 27 18 45 0 10 -10 21 -18 26 -17 4 0 24 27
46 60 21 33 40 59 42 57 2 -2 -4 -23 -12 -47 -11 -33 -12 -46 -3 -57 16 -19
32 -18 63 7 22 17 26 18 26 4 0 -29 28 -27 74 5 41 28 46 29 46 12 0 -11 7
-25 16 -33 13 -11 21 -10 49 5 36 20 85 66 69 66 -5 0 -20 -9 -34 -20 -14 -11
-31 -20 -38 -20 -18 0 -5 68 19 100 96 124 120 158 125 177 17 65 -38 72 -89
13z m63 4 c0 -13 -61 -112 -76 -125 -9 -8 -1 18 20 59 20 39 41 72 46 72 6 0
10 -3 10 -6z m-196 -255 c-15 -16 -31 -29 -36 -29 -17 0 -7 23 24 53 40 41 52
18 12 -24z"/>
<path d="M2082 1018 c-17 -17 -15 -45 4 -52 19 -7 17 -8 33 21 9 19 8 24 -7
32 -13 7 -22 7 -30 -1z"/>
<path d="M1073 970 c-35 -16 -63 -33 -63 -39 0 -5 -3 -16 -6 -24 -8 -21 84
-71 102 -56 23 19 16 37 -21 49 -19 6 -35 15 -35 19 0 4 19 14 43 21 42 12 57
24 57 48 0 16 -5 15 -77 -18z"/>
<path d="M2872 980 c-11 -18 -9 -22 22 -37 41 -19 39 -28 -8 -37 -25 -5 -39
-15 -50 -36 -8 -17 -13 -30 -10 -30 2 0 33 12 68 26 43 18 68 35 75 51 6 13
11 26 11 28 0 3 -86 55 -92 55 -2 0 -9 -9 -16 -20z"/>
</g>
</svg>
