<svg id="Layer_5" enable-background="new 0 0 64 64" height="512" viewBox="0 0 64 64" width="512" xmlns="http://www.w3.org/2000/svg"><path d="m14 10v-6c0-1.1.9-2 2-2h44c1.1 0 2 .9 2 2v6z" fill="#b4dd7f"/><path d="m60 46h-46v-36h48v34c0 1.105-.895 2-2 2z" fill="#e6e9ed"/><path d="m44 26h14v16h-14z" fill="#ff826e"/><path d="m37 60v2h-28v-2c0-1.1.9-2 2-2h4 16 4c1.1 0 2 .9 2 2z" fill="#969faa"/><path d="m29 52 2 6h-16l2-6z" fill="#969faa"/><path d="m44 46v2c0 2.21-1.79 4-4 4h-11-12-11c-2.21 0-4-1.79-4-4v-4h42z" fill="#aab2bd"/><path d="m44 44h-42v-20c0-2.21 1.79-4 4-4h8 26c2.21 0 4 1.79 4 4v2 16z" fill="#69d6f4"/><path d="m28 24h-8-12c-1.1 0-2 .9-2 2v12c0 1.1.9 2 2 2h8 12c1.1 0 2-.9 2-2v-12c0-1.1-.9-2-2-2z" fill="#fcd770"/><path d="m60 1h-44c-1.654 0-3 1.346-3 3v15h-7c-2.757 0-5 2.243-5 5v24c0 2.757 2.243 5 5 5h9.612l-1.333 4h-3.279c-1.654 0-3 1.346-3 3v3h30v-3c0-1.654-1.346-3-3-3h-3.279l-1.333-4h9.612c2.757 0 5-2.243 5-5v-1h15c1.654 0 3-1.346 3-3v-40c0-1.654-1.346-3-3-3zm-44 2h44c.551 0 1 .449 1 1v5h-46v-5c0-.551.449-1 1-1zm-10 18h34c1.654 0 3 1.346 3 3v19h-40v-19c0-1.654 1.346-3 3-3zm39 6h12v14h-12zm-9 33v1h-26v-1c0-.551.449-1 1-1h24c.551 0 1 .449 1 1zm-6.388-3h-13.224l1.333-4h10.558zm10.388-6h-34c-1.654 0-3-1.346-3-3v-3h40v3c0 1.654-1.346 3-3 3zm20-6h-15v-2h14v-18h-14v-1c0-2.757-2.243-5-5-5h-25v-8h46v33c0 .551-.449 1-1 1z"/><path d="m26 47h2v2h-2z"/><path d="m22 47h2v2h-2z"/><path d="m18 47h2v2h-2z"/><path d="m17 5h2v2h-2z"/><path d="m21 5h2v2h-2z"/><path d="m25 5h2v2h-2z"/><path d="m17 13h2v2h-2z"/><path d="m21 13h38v2h-38z"/><path d="m47 17h12v2h-12z"/><path d="m47 21h12v2h-12z"/><path d="m8 41h20c1.654 0 3-1.346 3-3v-12c0-1.654-1.346-3-3-3h-20c-1.654 0-3 1.346-3 3v12c0 1.654 1.346 3 3 3zm-1-15c0-.551.449-1 1-1h20c.551 0 1 .449 1 1v12c0 .551-.449 1-1 1h-20c-.551 0-1-.449-1-1z"/><path d="m11.675 31h12.649v2h-12.649z" transform="matrix(.316 -.949 .949 .316 -18.051 38.951)"/><path d="m22.707 36.707 4.707-4.707-4.707-4.707-1.414 1.414 3.293 3.293-3.293 3.293z"/><path d="m14.707 35.293-3.293-3.293 3.293-3.293-1.414-1.414-4.707 4.707 4.707 4.707z"/><path d="m33 23h8v2h-8z"/><path d="m33 27h8v2h-8z"/><path d="m33 31h8v2h-8z"/><path d="m33 35h8v2h-8z"/><path d="m35 39h2v2h-2z"/><path d="m39 39h2v2h-2z"/></svg>